<?xml version="1.0" encoding="utf-8"?>
<!-- Generator: Adobe Illustrator 19.2.0, SVG Export Plug-In . SVG Version: 6.00 Build 0)  -->
<svg version="1.1" id="Слой_1" xmlns="http://www.w3.org/2000/svg" xmlns:xlink="http://www.w3.org/1999/xlink" x="0px" y="0px"
	 viewBox="0 0 59.5 59.5" style="enable-background:new 0 0 59.5 59.5;" xml:space="preserve">
<style type="text/css">
	.st0{fill-rule:evenodd;clip-rule:evenodd;fill:#2AB27B;}
</style>
<title>demo</title>
<path class="st0" d="M54.8,50.4h-50c-2.2,0-4-1.8-4-4v-32c0-2.2,1.8-4,4-4h50c2.2,0,4,1.8,4,4v32C58.8,48.6,57,50.4,54.8,50.4z
	 M56.8,15.4c0-2.2-0.8-3-3-3h-48c-2.2,0-3,0.8-3,3v5h54V15.4z M56.8,22.4h-54v23c0,2.2,0.8,3,3,3h48c2.2,0,3-0.8,3-3V22.4z M37,27.6
	l-5.3,15.1l-0.9-0.3l-0.5,0.9l-13.4-8l-4.2,7.6l-1.7-1l5-9L16,33l0.3-0.4l14,8.4l5.6-15.8l0.9,0.3l0.8-0.6l12,18L47.9,44L37,27.6z
	 M7.8,14.4c1.1,0,2,0.9,2,2s-0.9,2-2,2c-1.1,0-2-0.9-2-2S6.7,14.4,7.8,14.4z M13.8,14.4c1.1,0,2,0.9,2,2s-0.9,2-2,2
	c-1.1,0-2-0.9-2-2S12.7,14.4,13.8,14.4z M19.8,14.4c1.1,0,2,0.9,2,2s-0.9,2-2,2c-1.1,0-2-0.9-2-2S18.7,14.4,19.8,14.4z"/>
</svg>
