<?xml version="1.0" encoding="utf-8"?>
<!-- Generator: Adobe Illustrator 19.2.0, SVG Export Plug-In . SVG Version: 6.00 Build 0)  -->
<svg version="1.1" id="Слой_1" xmlns="http://www.w3.org/2000/svg" xmlns:xlink="http://www.w3.org/1999/xlink" x="0px" y="0px"
	 viewBox="0 0 59.5 59.5" style="enable-background:new 0 0 59.5 59.5;" xml:space="preserve">
<style type="text/css">
	.st0{fill:#2AB27B;}
</style>
<title>demo</title>
<path class="st0" d="M54.6,50.9c-0.2-0.3-0.5-0.4-0.8-0.6c-1.4-0.7-5.9-2.9-6.3-19c-0.2-9.1-4.6-13.5-8.2-15.5
	c-1.9-1.1-3.9-1.7-5.6-2.1c1.4-1.2,2.3-3,2.3-5C36.1,5,33,2,29.3,2c-3.8,0-6.8,3-6.8,6.7c0,2,0.9,3.8,2.3,5
	c-11,2.3-12.2,13.8-12.3,17.6c-0.1,4-0.4,16.1-6.3,19c-0.3,0.2-0.6,0.3-0.8,0.6L5,51.4L5.3,52c0.3,0.7,0.4,0.9,7,0.9
	c3.2,0,7.2,0,10.6-0.1c0.9,3.1,3.8,5.2,7.2,5.2c3.3,0,6.1-2.1,7.1-5.1c3.4,0.1,7.3,0.2,10.5,0.2c0,0,0,0,0,0c6.6,0,6.7-0.4,7-1
	l0.3-0.8L54.6,50.9z M24.5,8.7c0-2.6,2.1-4.7,4.8-4.7C31.9,4,34,6.1,34,8.7c0,2.3-1.6,4.1-3.7,4.6c0,0-0.1,0-0.1,0h-0.1
	c-0.3,0-0.8,0-1.4,0c-0.2,0-0.3,0-0.4,0C26.1,12.9,24.5,11,24.5,8.7z M30.1,56c-2.2,0-4.1-1.3-5-3.3c2.2,0,4-0.1,4.9-0.1
	c1,0,2.8,0.1,5.1,0.2C34.2,54.7,32.2,56,30.1,56z M47.7,51.2C47.7,51.2,47.7,51.2,47.7,51.2c-6.1,0-15.1-0.4-17.7-0.5
	c-2.6,0.1-11.5,0.2-17.7,0.2c-1.3,0-2.4-0.1-3.2-0.1c2.2-2,5-6.8,5.3-19.3c0.4-14.2,9.8-16,14-16c0.2,0,0.4,0,0.6,0l0,0l1.1,0
	c2.5,0,15,0.8,15.4,16c0.3,12.5,3.1,17.4,5.3,19.4C50.1,51,49.1,51.2,47.7,51.2z"/>
</svg>
